<?xml version="1.0" encoding="UTF-8" standalone="no"?>
<!-- Created with Inkscape (http://www.inkscape.org/) -->

<svg
   xmlns:dc="http://purl.org/dc/elements/1.1/"
   xmlns:cc="http://creativecommons.org/ns#"
   xmlns:rdf="http://www.w3.org/1999/02/22-rdf-syntax-ns#"
   xmlns:svg="http://www.w3.org/2000/svg"
   xmlns="http://www.w3.org/2000/svg"
   xmlns:xlink="http://www.w3.org/1999/xlink"
   xmlns:sodipodi="http://sodipodi.sourceforge.net/DTD/sodipodi-0.dtd"
   xmlns:inkscape="http://www.inkscape.org/namespaces/inkscape"
   width="86"
   height="86"
   id="svg2"
   version="1.1"
   inkscape:version="0.48.2 r9819"
   sodipodi:docname="Cutespot.svg"
   inkscape:export-filename="C:\Users\Stephan\Desktop\Cutespot.png"
   inkscape:export-xdpi="90"
   inkscape:export-ydpi="90">
  <defs
     id="defs4">
    <linearGradient
       id="linearGradient3789-6">
      <stop
         style="stop-color:#c9e540;stop-opacity:1;"
         offset="0"
         id="stop3791-0" />
      <stop
         style="stop-color:#499c03;stop-opacity:1;"
         offset="1"
         id="stop3793-4" />
    </linearGradient>
    <linearGradient
       inkscape:collect="always"
       xlink:href="#linearGradient3789-6"
       id="linearGradient3776"
       x1="-10"
       y1="26.666666"
       x2="-10"
       y2="73.333336"
       gradientUnits="userSpaceOnUse"
       spreadMethod="pad" />
    <filter
       inkscape:collect="always"
       id="filter5581"
       x="-0.04959396"
       width="1.0991879"
       y="-0.28155158"
       height="1.5631032">
      <feGaussianBlur
         inkscape:collect="always"
         stdDeviation="0.67254043"
         id="feGaussianBlur5583" />
    </filter>
    <filter
       inkscape:collect="always"
       id="filter5585"
       x="-0.042562068"
       width="1.0851241"
       y="-0.24163058"
       height="1.4832612">
      <feGaussianBlur
         inkscape:collect="always"
         stdDeviation="0.67254043"
         id="feGaussianBlur5587" />
    </filter>
    <filter
       inkscape:collect="always"
       id="filter5589"
       x="-0.037374269"
       width="1.0747485"
       y="-0.21217875"
       height="1.4243575">
      <feGaussianBlur
         inkscape:collect="always"
         stdDeviation="0.67254043"
         id="feGaussianBlur5591" />
    </filter>
    <filter
       inkscape:collect="always"
       id="filter5601">
      <feGaussianBlur
         inkscape:collect="always"
         stdDeviation="0.99103533"
         id="feGaussianBlur5603" />
    </filter>
  </defs>
  <sodipodi:namedview
     id="base"
     pagecolor="#ffffff"
     bordercolor="#666666"
     borderopacity="1.0"
     inkscape:pageopacity="0.0"
     inkscape:pageshadow="2"
     inkscape:zoom="2"
     inkscape:cx="143.61548"
     inkscape:cy="-7.3584987"
     inkscape:document-units="px"
     inkscape:current-layer="layer2"
     showgrid="true"
     inkscape:window-width="1920"
     inkscape:window-height="1148"
     inkscape:window-x="-8"
     inkscape:window-y="-8"
     inkscape:window-maximized="1"
     inkscape:snap-bbox="true"
     inkscape:snap-global="true"
     showguides="true"
     inkscape:guide-bbox="true"
     inkscape:snap-nodes="false">
    <inkscape:grid
       type="xygrid"
       id="grid2985"
       empspacing="5"
       visible="false"
       enabled="true"
       snapvisiblegridlinesonly="true" />
  </sodipodi:namedview>
  <metadata
     id="metadata7">
    <rdf:RDF>
      <cc:Work
         rdf:about="">
        <dc:format>image/svg+xml</dc:format>
        <dc:type
           rdf:resource="http://purl.org/dc/dcmitype/StillImage" />
        <dc:title></dc:title>
      </cc:Work>
    </rdf:RDF>
  </metadata>
  <g
     inkscape:groupmode="layer"
     id="layer2"
     inkscape:label="Ebene"
     style="display:inline"
     transform="translate(0,-4)">
    <path
       sodipodi:type="arc"
       style="fill:url(#linearGradient3776);fill-opacity:1;stroke:none"
       id="path3000"
       sodipodi:cx="-10"
       sodipodi:cy="50"
       sodipodi:rx="30"
       sodipodi:ry="30"
       d="m 20,50 a 30,30 0 1 1 -60,0 30,30 0 1 1 60,0 z"
       transform="matrix(1.4333333,0,0,1.4333333,57.333333,-24.666665)" />
    <path
       style="opacity:0.4;fill:none;stroke:#000000;stroke-width:4.13397741000000000;stroke-linecap:round;stroke-linejoin:miter;stroke-miterlimit:2;stroke-opacity:1;stroke-dasharray:none;filter:url(#filter5581)"
       d="m 32.223507,44.789832 c 11.289797,-2.178507 21.929685,-2.237384 32.546242,4.41791"
       id="path3832"
       inkscape:connector-curvature="0"
       sodipodi:nodetypes="cc" />
    <path
       style="opacity:0.4;fill:#000000;fill-opacity:1;stroke:none;filter:url(#filter5601)"
       d="M 74.331495,76.401966 C 73.772814,73.820917 74.170272,74.622079 73.53125,72.1875 72.833985,70.007813 71.95214,67.972662 70.90625,66.125 69.86036,64.277338 68.644514,62.609389 67.25,61.09375 65.855455,59.578142 64.329108,58.26171 62.625,57.125 c -1.704108,-1.13671 -3.580079,-2.085938 -5.59375,-2.84375 -2.013671,-0.757812 -4.176765,-1.339835 -6.5,-1.71875 -2.323235,-0.378915 -4.8047,-0.562483 -7.4375,-0.5625 -2.632819,1.7e-5 -5.110349,0.186515 -7.4375,0.5625 -2.327151,0.375985 -4.509766,0.935547 -6.53125,1.6875 -2.021484,0.751953 -3.877933,1.684579 -5.59375,2.8125 -1.715817,1.127921 -3.277349,2.46486 -4.6875,3.96875 -1.410158,1.50392 -2.661132,3.159174 -3.71875,5 -1.057618,1.840826 -1.919922,3.853516 -2.625,6.03125 -0.705078,2.177734 -0.524548,1.595518 -1.296931,3.867092 14.287314,-10.640157 13.265926,4.221879 15.286668,11.233015 -5e-6,-1.914052 -0.798327,-3.608902 -0.614737,-5.287607 0.183591,-1.678705 0.476563,-3.244141 0.84375,-4.6875 0.367187,-1.443359 0.824216,-2.791987 1.375,-4 0.550784,-1.208013 1.171869,-2.277332 1.90625,-3.25 0.734368,-0.972642 1.587894,-1.833015 2.5,-2.5625 0.912106,-0.729485 1.910157,-1.326172 3,-1.8125 1.089843,-0.486328 2.263668,-0.850579 3.53125,-1.09375 1.267582,-0.243171 2.617179,-0.374986 4.0625,-0.375 1.4414,7e-6 2.801274,0.133784 4.0625,0.375 1.261226,0.241216 2.418949,0.580075 3.5,1.0625 1.081051,0.482425 2.067873,1.088866 2.96875,1.8125 0.900877,0.723634 1.716797,1.566406 2.4375,2.53125 0.720703,0.964844 1.365721,2.043947 1.90625,3.25 0.540529,1.206053 0.983395,2.552738 1.34375,4 0.360355,1.447262 0.632319,2.999028 0.8125,4.6875 0.279089,2.471302 0.35611,1.232459 0.514935,4.388716 1.917076,-5.410334 -2.920612,-21.97204 13.69156,-9.79925 z"
       id="path3994"
       inkscape:connector-curvature="0"
       sodipodi:nodetypes="ccscssscssssssccssssssscssssssccc" />
    <path
       style="opacity:0.4;fill:none;stroke:#000000;stroke-width:4.81697272999999980;stroke-linecap:round;stroke-linejoin:miter;stroke-miterlimit:2;stroke-opacity:1;stroke-dasharray:none;display:inline;filter:url(#filter5585)"
       d="m 30.230868,36.12984 c 13.155041,-2.538432 25.552798,-2.607036 37.92337,5.147813"
       id="path3832-1"
       inkscape:connector-curvature="0"
       sodipodi:nodetypes="cc" />
    <path
       style="opacity:0.4;fill:none;stroke:#000000;stroke-width:5.48560143000000000;stroke-linecap:round;stroke-linejoin:miter;stroke-miterlimit:2;stroke-opacity:1;stroke-dasharray:none;display:inline;filter:url(#filter5589)"
       d="m 28.069811,26.885972 c 14.98105,-2.89078 29.099698,-2.968908 43.187388,5.862366"
       id="path3832-1-5"
       inkscape:connector-curvature="0"
       sodipodi:nodetypes="cc" />
  </g>
  <g
     inkscape:groupmode="layer"
     id="layer1"
     inkscape:label="Ebene#1"
     style="display:inline">
    <path
       style="fill:none;stroke:#f5f7eb;stroke-width:4.13397741;stroke-linecap:round;stroke-linejoin:miter;stroke-miterlimit:2;stroke-opacity:1;stroke-dasharray:none;display:inline"
       d="m 32.223507,39.789832 c 11.289797,-2.178507 21.929685,-2.237384 32.546242,4.41791"
       id="path3832-4"
       inkscape:connector-curvature="0"
       sodipodi:nodetypes="cc" />
    <path
       style="fill:#f5f7eb;fill-opacity:1;stroke:none;display:inline"
       d="M 74.706495,72.042591 C 74.147814,69.461542 74.170272,69.622079 73.53125,67.1875 72.833985,65.007813 71.95214,62.972662 70.90625,61.125 69.86036,59.277338 68.644514,57.609389 67.25,56.09375 65.855455,54.578142 64.329108,53.26171 62.625,52.125 c -1.704108,-1.13671 -3.580079,-2.085938 -5.59375,-2.84375 -2.013671,-0.757812 -4.176765,-1.339835 -6.5,-1.71875 -2.323235,-0.378915 -4.8047,-0.562483 -7.4375,-0.5625 -2.632819,1.7e-5 -5.110349,0.186515 -7.4375,0.5625 -2.327151,0.375985 -4.509766,0.935547 -6.53125,1.6875 -2.021484,0.751953 -3.877933,1.684579 -5.59375,2.8125 -1.715817,1.127921 -3.277349,2.46486 -4.6875,3.96875 -1.410158,1.50392 -2.661132,3.159174 -3.71875,5 -1.057618,1.840826 -1.919922,3.853516 -2.625,6.03125 -0.705078,2.177734 -0.821423,2.345518 -1.593806,4.617092 2.819127,3.038699 7.513673,7.499105 14.614793,10.62364 -5e-6,-1.914052 0.170423,-3.749527 0.354013,-5.428232 0.183591,-1.678705 0.476563,-3.244141 0.84375,-4.6875 0.367187,-1.443359 0.824216,-2.791987 1.375,-4 0.550784,-1.208013 1.171869,-2.277332 1.90625,-3.25 0.734368,-0.972642 1.587894,-1.833015 2.5,-2.5625 0.912106,-0.729485 1.910157,-1.326172 3,-1.8125 1.089843,-0.486328 2.263668,-0.850579 3.53125,-1.09375 1.267582,-0.243171 2.617179,-0.374986 4.0625,-0.375 1.4414,7e-6 2.801274,0.133784 4.0625,0.375 1.261226,0.241216 2.418949,0.580075 3.5,1.0625 1.081051,0.482425 2.067873,1.088866 2.96875,1.8125 0.900877,0.723634 1.716797,1.566406 2.4375,2.53125 0.720703,0.964844 1.365721,2.043947 1.90625,3.25 0.540529,1.206053 0.983395,2.552738 1.34375,4 0.360355,1.447262 0.632319,2.999028 0.8125,4.6875 0.279089,2.471302 0.309235,2.279334 0.46806,5.435591 4.241141,-1.832273 9.914507,-5.466484 14.113435,-10.2055 z"
       id="path3994-2"
       inkscape:connector-curvature="0"
       sodipodi:nodetypes="ccscssscssssssccssssssscssssssccc" />
    <path
       style="fill:none;stroke:#f5f7eb;stroke-width:4.81697273;stroke-linecap:round;stroke-linejoin:miter;stroke-miterlimit:2;stroke-opacity:1;stroke-dasharray:none;display:inline"
       d="m 30.230868,31.12984 c 13.155041,-2.538432 25.552798,-2.607036 37.92337,5.147813"
       id="path3832-1-3"
       inkscape:connector-curvature="0"
       sodipodi:nodetypes="cc" />
    <path
       style="fill:none;stroke:#f5f7eb;stroke-width:5.48560143;stroke-linecap:round;stroke-linejoin:miter;stroke-miterlimit:2;stroke-opacity:1;stroke-dasharray:none;display:inline"
       d="m 28.069811,21.885972 c 14.98105,-2.89078 29.099698,-2.968908 43.187388,5.862366"
       id="path3832-1-5-2"
       inkscape:connector-curvature="0"
       sodipodi:nodetypes="cc" />
  </g>
</svg>
