<?xml version="1.0" encoding="UTF-8" standalone="no"?>
<svg
   xmlns:sketch="http://www.bohemiancoding.com/sketch/ns"
   xmlns:dc="http://purl.org/dc/elements/1.1/"
   xmlns:cc="http://creativecommons.org/ns#"
   xmlns:rdf="http://www.w3.org/1999/02/22-rdf-syntax-ns#"
   xmlns:svg="http://www.w3.org/2000/svg"
   xmlns="http://www.w3.org/2000/svg"
   xmlns:xlink="http://www.w3.org/1999/xlink"
   xmlns:sodipodi="http://sodipodi.sourceforge.net/DTD/sodipodi-0.dtd"
   xmlns:inkscape="http://www.inkscape.org/namespaces/inkscape"
   width="86px"
   height="86px"
   viewBox="0 0 86 86"
   version="1.1"
   id="svg2"
   inkscape:version="0.48.4 r9939"
   sodipodi:docname="Cutespot.svg"
   inkscape:export-filename="Z:\lele\cutespotify\cutespotify.png"
   inkscape:export-xdpi="90"
   inkscape:export-ydpi="90">
  <metadata
     id="metadata24">
    <rdf:RDF>
      <cc:Work
         rdf:about="">
        <dc:format>image/svg+xml</dc:format>
        <dc:type
           rdf:resource="http://purl.org/dc/dcmitype/StillImage" />
        <dc:title>Cutespot</dc:title>
      </cc:Work>
    </rdf:RDF>
  </metadata>
  <sodipodi:namedview
     pagecolor="#ffffff"
     bordercolor="#666666"
     borderopacity="1"
     objecttolerance="10"
     gridtolerance="10"
     guidetolerance="10"
     inkscape:pageopacity="0"
     inkscape:pageshadow="2"
     inkscape:window-width="1440"
     inkscape:window-height="759"
     id="namedview22"
     showgrid="false"
     inkscape:zoom="1.372093"
     inkscape:cx="6.7439703"
     inkscape:cy="-10.5007"
     inkscape:window-x="-8"
     inkscape:window-y="-8"
     inkscape:window-maximized="1"
     inkscape:current-layer="svg2" />
  <title
     id="title4">Cutespot</title>
  <description
     id="description6">Created with Sketch (http://www.bohemiancoding.com/sketch)</description>
  <defs
     id="defs8">
    <linearGradient
       x1="43.021878"
       y1="15.87286"
       x2="43.021878"
       y2="89.420651"
       id="linearGradient-1"
       gradientUnits="userSpaceOnUse">
      <stop
         stop-color="#9CCB3D"
         offset="0%"
         id="stop11" />
      <stop
         stop-color="#7EB234"
         offset="100%"
         id="stop13" />
    </linearGradient>
    <linearGradient
       inkscape:collect="always"
       xlink:href="#linearGradient-1"
       id="linearGradient3800"
       gradientUnits="userSpaceOnUse"
       x1="53.589676"
       y1="-4.8983264"
       x2="53.225266"
       y2="89.056244" />
  </defs>
  <path
     inkscape:connector-curvature="0"
     style="fill:url(#linearGradient3800);fill-rule:evenodd;stroke:none"
     sketch:type="MSShapeGroup"
     id="Oval-1-copy-2"
     d="M 45.786346,0.08747888 C 44.872325,0.02945403 43.950541,0 43.021878,0 19.285715,0 0.04375601,19.241959 0.04375601,42.978122 c 0,0.928578 0.02944859,1.850277 0.08746281,2.764215 l 0,0 c -0.05714588,0.231728 -0.08746281,0.474144 -0.08746281,0.723798 l 0,36.484997 c 0,1.659677 1.34198359,3.005112 3.00511249,3.005112 l 36.4849965,0 c 0.249447,0 0.491796,-0.03032 0.723545,-0.08748 0.914021,0.05803 1.835805,0.08748 2.764468,0.08748 C 66.758041,85.956244 86,66.714285 86,42.978122 86,42.049545 85.970551,41.127845 85.912537,40.213907 85.969683,39.982179 86,39.739762 86,39.490109 L 86,3.0051125 C 86,1.3454347 84.658016,0 82.994888,0 L 46.509891,0 c -0.249447,0 -0.491796,0.03031494 -0.723545,0.08747888 z m 0,0" />
  <path
     style="fill:#000000;fill-rule:evenodd;stroke:none"
     inkscape:connector-curvature="0"
     sketch:type="MSShapeGroup"
     id="Shape-copy"
     d="m 28.528976,23.393617 c 5.49622,-0.431251 11.025156,-0.419354 16.512454,0.12194 8.791572,0.930907 17.603964,2.989016 25.437862,7.194457 1.094486,0.6097 2.358497,1.216425 2.867076,2.444747 0.859528,1.787461 0.214139,4.196519 -1.552504,5.16609 -1.252115,0.737588 -2.899791,0.701898 -4.134061,-0.05651 C 62.309316,35.138516 56.29262,33.324287 50.219416,32.232776 43.328322,30.959842 36.267702,30.799238 29.290357,31.307817 c -3.45893,0.347975 -6.917861,0.85358 -10.2608,1.823151 -1.374055,0.466941 -2.997938,0.654312 -4.247079,-0.246854 -1.936168,-1.180736 -2.310911,-4.074579 -0.921985,-5.81148 0.585907,-0.785174 1.522762,-1.183709 2.432851,-1.454356 3.994276,-1.153969 8.110493,-1.781513 12.235632,-2.224661 0,0 -4.125139,0.443148 0,0 l 0,0 0,0 z m 0,0" />
  <path
     style="fill:#000000;fill-rule:evenodd;stroke:none"
     inkscape:connector-curvature="0"
     sketch:type="MSShapeGroup"
     id="path18"
     d="m 32.359675,37.859859 c 11.527786,-0.475864 23.341091,1.879659 33.363959,7.72088 1.168839,0.591855 2.07298,1.784487 2.010522,3.137723 0.09517,2.081902 -2.177074,3.830699 -4.160828,3.155568 -1.314573,-0.460992 -2.420954,-1.35621 -3.684966,-1.933194 -9.49942,-4.702124 -20.396687,-6.257601 -30.895419,-5.186909 -2.724317,0.333104 -5.448634,0.794096 -8.080752,1.585219 -1.231296,0.425303 -2.706472,0.520476 -3.771216,-0.353923 -1.918323,-1.400823 -1.534659,-4.874624 0.773278,-5.65385 4.660485,-1.522762 9.555928,-2.257376 14.445422,-2.471514 0,0 -4.889494,0.214138 0,0 l 0,0 0,0 z m 0,0" />
  <path
     style="fill:#000000;fill-rule:evenodd;stroke:none"
     inkscape:connector-curvature="0"
     sketch:type="MSShapeGroup"
     id="path20"
     d="m 32.648167,51.808599 c 9.225798,-0.57401 18.728192,1.121252 26.859504,5.633031 1.023106,0.612674 2.364446,1.082588 2.765955,2.325781 0.532372,1.403797 -0.345001,3.143671 -1.826125,3.476776 -1.064744,0.368794 -2.064057,-0.318234 -2.950352,-0.820864 -6.786999,-3.982381 -14.769604,-5.540833 -22.576735,-5.430789 -4.374967,0.154655 -8.746961,0.639441 -13.020807,1.620909 -1.100434,0.267673 -2.423928,0.490734 -3.334017,-0.374743 -1.552503,-1.252115 -0.966597,-4.122165 1.023106,-4.55639 4.288718,-0.984442 8.657737,-1.698237 13.059471,-1.873711 0,0 -4.401734,0.175474 0,0 l 0,0 0,0 z m 0,0" />
</svg>
