<?xml version="1.0" encoding="utf-8"?>
<!-- Generator: Adobe Illustrator 16.0.0, SVG Export Plug-In . SVG Version: 6.00 Build 0)  -->
<!DOCTYPE svg PUBLIC "-//W3C//DTD SVG 1.1//EN" "http://www.w3.org/Graphics/SVG/1.1/DTD/svg11.dtd">
<svg version="1.1"
	 id="svg2" xmlns:dc="http://purl.org/dc/elements/1.1/" xmlns:cc="http://creativecommons.org/ns#" xmlns:rdf="http://www.w3.org/1999/02/22-rdf-syntax-ns#" xmlns:svg="http://www.w3.org/2000/svg" xmlns:sodipodi="http://sodipodi.sourceforge.net/DTD/sodipodi-0.dtd" xmlns:inkscape="http://www.inkscape.org/namespaces/inkscape" sodipodi:docname="circle-shape.svg" inkscape:version="0.48.2 r9819" inkscape:export-ydpi="90" inkscape:export-xdpi="90" inkscape:export-filename="C:\Users\Stephan\Desktop\double-shape.png"
	 xmlns="http://www.w3.org/2000/svg" xmlns:xlink="http://www.w3.org/1999/xlink" x="0px" y="0px" width="86px" height="86px"
	 viewBox="0 0 86 86" enable-background="new 0 0 86 86" xml:space="preserve">
<sodipodi:namedview  showgrid="true" inkscape:cy="36.776055" inkscape:cx="-21.267455" inkscape:zoom="5.6568542" borderopacity="1.0" bordercolor="#666666" pagecolor="#ffffff" id="base" inkscape:snap-global="true" inkscape:snap-bbox="true" inkscape:window-maximized="1" inkscape:window-y="-8" inkscape:window-x="-8" inkscape:window-height="1148" inkscape:window-width="1920" inkscape:pageshadow="2" inkscape:current-layer="layer2" inkscape:pageopacity="0.0" inkscape:document-units="px">
	<inkscape:grid  enabled="true" visible="true" empspacing="5" id="grid2985" type="xygrid" snapvisiblegridlinesonly="true">
		</inkscape:grid>
</sodipodi:namedview>
<g id="layer2" transform="translate(0,-4)" inkscape:label="Ebene" inkscape:groupmode="layer" display="none">
	
		<linearGradient id="path3000_2_" gradientUnits="userSpaceOnUse" x1="110.9082" y1="-101.9707" x2="110.9082" y2="-148.0947" gradientTransform="matrix(1.4333 0 0 -1.4333 -116.4678 -132.7122)">
		<stop  offset="0" style="stop-color:#0A75C2"/>
		<stop  offset="1" style="stop-color:#064572"/>
	</linearGradient>
	
		<path id="path3000" sodipodi:cx="-10" sodipodi:cy="50" sodipodi:ry="30" sodipodi:type="arc" sodipodi:rx="30" display="inline" fill="url(#path3000_2_)" d="
		M85,46.5C85,69.972,65.972,89,42.5,89S0,69.972,0,46.5C0,23.028,19.028,4,42.5,4S85,23.028,85,46.5z"/>
</g>
<g>
	<g id="layer2_1_" transform="translate(0,-4)" inkscape:label="Ebene" inkscape:groupmode="layer">
		
			<linearGradient id="path3000_3_" gradientUnits="userSpaceOnUse" x1="110.9082" y1="-101.9707" x2="110.9082" y2="-148.0947" gradientTransform="matrix(1.4333 0 0 -1.4333 -116.4678 -132.7122)">
			<stop  offset="0" style="stop-color:#C9E540"/>
			<stop  offset="1" style="stop-color:#499C03"/>
		</linearGradient>
		
			<path id="path3000_1_" sodipodi:cx="-10" sodipodi:cy="50" sodipodi:ry="30" sodipodi:type="arc" sodipodi:rx="30" fill="url(#path3000_3_)" d="
			M85,46.5C85,69.973,65.972,89,42.5,89S0,69.973,0,46.5C0,23.028,19.028,4,42.5,4S85,23.028,85,46.5z"/>
		<g id="path3832" inkscape:connector-curvature="0" sodipodi:nodetypes="cc" opacity="0.4" enable-background="new    ">
			<path fill="none" stroke="#000000" stroke-width="4.134" stroke-linecap="round" stroke-miterlimit="2" d="M31.849,44.316
				c11.159-2.153,21.674-2.212,32.167,4.366"/>
		</g>
		
			<g id="path3994" inkscape:connector-curvature="0" sodipodi:nodetypes="ccscssscssssssccssssssscssssssccc" opacity="0.4" enable-background="new    ">
			<path d="M73.468,75.561c-0.552-2.551-0.16-1.76-0.792-4.166c-0.688-2.154-1.561-4.166-2.594-5.992
				c-1.034-1.826-2.235-3.475-3.614-4.973c-1.378-1.498-2.887-2.799-4.571-3.922c-1.684-1.123-3.538-2.062-5.528-2.811
				c-1.99-0.75-4.128-1.324-6.425-1.699c-2.296-0.375-4.748-0.557-7.351-0.557s-5.051,0.186-7.351,0.557
				c-2.3,0.371-4.458,0.926-6.456,1.668c-1.998,0.744-3.833,1.666-5.528,2.779c-1.696,1.115-3.239,2.438-4.633,3.924
				c-1.394,1.486-2.63,3.121-3.675,4.941c-1.045,1.818-1.897,3.809-2.595,5.961c-0.697,2.152-0.518,1.578-1.282,3.822
				c14.121-10.518,13.111,4.172,15.109,11.102c0-1.891-0.789-3.566-0.607-5.225c0.181-1.66,0.471-3.207,0.834-4.633
				c0.363-1.428,0.814-2.76,1.359-3.955c0.544-1.193,1.158-2.25,1.884-3.211c0.726-0.963,1.569-1.812,2.471-2.533
				s1.888-1.311,2.965-1.791s2.237-0.842,3.49-1.082c1.252-0.24,2.586-0.371,4.015-0.371c1.425,0,2.769,0.133,4.016,0.371
				c1.246,0.238,2.391,0.574,3.459,1.051s2.044,1.076,2.934,1.791c0.891,0.715,1.697,1.549,2.409,2.502
				c0.713,0.953,1.35,2.02,1.885,3.213c0.534,1.191,0.972,2.523,1.328,3.953c0.355,1.43,0.625,2.965,0.803,4.633
				c0.276,2.441,0.352,1.219,0.51,4.338C61.829,79.898,57.048,63.529,73.468,75.561z"/>
		</g>
		<g id="path3832-1" inkscape:connector-curvature="0" sodipodi:nodetypes="cc" opacity="0.4" enable-background="new    ">
			<path fill="none" stroke="#000000" stroke-width="4.817" stroke-linecap="round" stroke-miterlimit="2" d="M29.879,35.756
				c13.002-2.509,25.255-2.577,37.482,5.088"/>
		</g>
		<g id="path3832-1-5" inkscape:connector-curvature="0" sodipodi:nodetypes="cc" opacity="0.4" enable-background="new    ">
			<path fill="none" stroke="#000000" stroke-width="5.4856" stroke-linecap="round" stroke-miterlimit="2" d="M27.744,26.62
				c14.807-2.857,28.761-2.935,42.686,5.794"/>
		</g>
	</g>
	<g id="layer1" inkscape:label="Ebene#1" inkscape:groupmode="layer">
		
			<path id="path3832-4" inkscape:connector-curvature="0" sodipodi:nodetypes="cc" fill="none" stroke="#F5F7EB" stroke-width="4.134" stroke-linecap="round" stroke-miterlimit="2" d="
			M31.849,39.327c11.159-2.153,21.674-2.211,32.167,4.366"/>
		
			<path id="path3994-2" inkscape:connector-curvature="0" sodipodi:nodetypes="ccscssscssssssccssssssscssssssccc" fill="#F5F7EB" d="
			M73.838,71.205c-0.552-2.551-0.53-2.393-1.162-4.799c-0.688-2.154-1.561-4.166-2.594-5.992c-1.034-1.826-2.235-3.475-3.614-4.973
			c-1.378-1.498-2.887-2.799-4.571-3.922c-1.684-1.123-3.538-2.062-5.528-2.811c-1.99-0.75-4.128-1.324-6.425-1.699
			c-2.296-0.375-4.748-0.557-7.351-0.557s-5.051,0.186-7.351,0.557c-2.3,0.371-4.458,0.926-6.456,1.668
			c-1.998,0.744-3.833,1.666-5.528,2.779c-1.696,1.115-3.239,2.438-4.633,3.924c-1.394,1.486-2.63,3.121-3.675,4.941
			c-1.045,1.818-1.897,3.809-2.595,5.961c-0.697,2.152-0.812,2.318-1.575,4.564c2.786,3.002,7.426,7.41,14.445,10.498
			c0-1.891,0.168-3.705,0.35-5.363c0.181-1.66,0.471-3.207,0.834-4.635c0.363-1.426,0.814-2.758,1.359-3.953
			c0.544-1.193,1.158-2.25,1.884-3.211c0.726-0.963,1.569-1.812,2.471-2.533s1.888-1.311,2.965-1.791s2.237-0.842,3.49-1.082
			c1.252-0.24,2.586-0.371,4.015-0.371c1.425,0,2.769,0.133,4.016,0.371c1.246,0.238,2.391,0.574,3.459,1.051
			s2.044,1.076,2.934,1.791c0.891,0.715,1.697,1.549,2.409,2.502c0.713,0.953,1.35,2.02,1.885,3.213
			c0.534,1.191,0.972,2.521,1.328,3.953c0.355,1.43,0.625,2.963,0.803,4.633c0.276,2.441,0.305,2.252,0.464,5.373
			C64.08,79.48,69.688,75.889,73.838,71.205z"/>
		
			<path id="path3832-1-3" inkscape:connector-curvature="0" sodipodi:nodetypes="cc" fill="none" stroke="#F5F7EB" stroke-width="4.817" stroke-linecap="round" stroke-miterlimit="2" d="
			M29.879,30.768c13.002-2.509,25.255-2.577,37.482,5.088"/>
		
			<path id="path3832-1-5-2" inkscape:connector-curvature="0" sodipodi:nodetypes="cc" fill="none" stroke="#F5F7EB" stroke-width="5.4856" stroke-linecap="round" stroke-miterlimit="2" d="
			M27.744,21.632c14.807-2.857,28.761-2.935,42.686,5.794"/>
	</g>
</g>
</svg>
